<?xml version="1.0" encoding="UTF-8"?>
<svg xmlns="http://www.w3.org/2000/svg" xmlns:xlink="http://www.w3.org/1999/xlink" viewBox="0 0 714.85 361.35">
  <defs>
    <style>.cls-1{fill:#8ad187;}.cls-2{fill:#6aae7f;}.cls-11,.cls-12,.cls-19,.cls-24,.cls-3,.cls-33,.cls-35,.cls-39,.cls-40,.cls-6,.cls-7,.cls-8{fill:none;}.cls-3{stroke:#12181f;stroke-width:14.19px;}.cls-10,.cls-11,.cls-12,.cls-19,.cls-24,.cls-3,.cls-4,.cls-40,.cls-6,.cls-7,.cls-8,.cls-9{stroke-miterlimit:10;}.cls-4{fill:#004484;stroke:#004484;}.cls-11,.cls-12,.cls-19,.cls-24,.cls-32,.cls-35,.cls-39,.cls-4,.cls-40,.cls-6,.cls-7,.cls-8,.cls-9{stroke-linecap:round;}.cls-11,.cls-4,.cls-6,.cls-9{stroke-width:3.6px;}.cls-10,.cls-5{fill:#dddfe1;}.cls-6{stroke:#61b6ff;}.cls-7{stroke:#002552;}.cls-12,.cls-7,.cls-8{stroke-width:3.45px;}.cls-8{stroke:#ac461e;}.cls-14,.cls-9{fill:#ff7f7d;}.cls-9{stroke:#ff7f7d;}.cls-10{stroke:#80230d;stroke-width:1.2px;}.cls-11{stroke:#80403f;}.cls-12{stroke:#b35f5e;}.cls-13{fill:#cc6464;}.cls-15{fill:#2a4a80;}.cls-16{fill:#5aaad9;}.cls-17,.cls-32{fill:#0071f2;}.cls-18{fill:#f1c99b;}.cls-19{stroke:#ffc361;stroke-width:4.92px;}.cls-20{fill:#ffc361;}.cls-21{fill:#62b5f1;}.cls-22{fill:#ffd5b1;}.cls-23{fill:#415780;}.cls-24{stroke:#fff;stroke-width:3.19px;opacity:0.15;}.cls-25{fill:#ffd4b0;}.cls-26{fill:url(#radial-gradient);}.cls-27{fill:#335a9a;}.cls-28{fill:#fff;}.cls-29{fill:#e9e8e6;}.cls-30{fill:#d4d4d4;}.cls-31{fill:#ebb85c;}.cls-32{stroke:#0071f2;stroke-width:11.1px;}.cls-32,.cls-33,.cls-35,.cls-39{stroke-linejoin:round;}.cls-33,.cls-35{stroke:#3e434f;}.cls-33{stroke-width:5.01px;}.cls-34{fill:#5b80c8;}.cls-35{stroke-width:1.97px;}.cls-36{fill:#6e92ff;}.cls-37{fill:#5780da;}.cls-38{fill:#80acff;}.cls-39,.cls-40{stroke:#415780;}.cls-39{stroke-width:2px;}.cls-40{stroke-width:2.33px;}</style>
    <radialGradient id="radial-gradient" cx="404.02" cy="69.67" r="24.09" gradientUnits="userSpaceOnUse">
      <stop offset="0" stop-color="#ff7f7d" stop-opacity="0.3"></stop>
      <stop offset="1" stop-color="#fff" stop-opacity="0"></stop>
    </radialGradient>
  </defs>
  <title>Boy</title>
  <g id="Layer_2">
    <g id="Layer_3">
      <path class="cls-1" d="M403.55,360.47H95.64a68.79,68.79,0,0,0,9.36.64H556.7c1.74,0,3.46-.07,5.16-.2H408A22.37,22.37,0,0,1,403.55,360.47Z"></path>
      <path class="cls-2" d="M600.24,344.78a63.92,63.92,0,0,1-38.37,16.13H674.05c11,0,19.9-7.91,19.9-17.66h0a16.47,16.47,0,0,0-4.76-11.46,65.16,65.16,0,0,1-39.53,13Z"></path>
      <path class="cls-2" d="M600.24,344.78H447.14c-1.1,8.83-9.53,15.69-19.77,15.69H403.55a22.37,22.37,0,0,0,4.41.44h153.9A63.92,63.92,0,0,0,600.24,344.78Z"></path>
      <path class="cls-2" d="M674.05,325.59H613.8a53.45,53.45,0,0,1-13.56,19.19h49.42a65.16,65.16,0,0,0,39.53-13A21,21,0,0,0,674.05,325.59Z"></path>
      <path class="cls-2" d="M551.75,342.81H447.27a15.85,15.85,0,0,1-.13,2H600.24a53.45,53.45,0,0,0,13.56-19.19H571.63C571.37,335.14,562.57,342.81,551.75,342.81Z"></path>
      <path class="cls-1" d="M403.55,360.47h23.82c10.24,0,18.67-6.86,19.77-15.69h-59C388.89,352.5,395.23,358.8,403.55,360.47Z"></path>
      <path class="cls-1" d="M388.08,342.81c0,.15,0,.29,0,.44h0c0,.52,0,1,.08,1.53h59a15.85,15.85,0,0,0,.13-2Z"></path>
      <path class="cls-2" d="M447.27,342.81H551.75c10.82,0,19.62-7.67,19.89-17.22H431.78C440.65,327.37,447.27,334.4,447.27,342.81Z"></path>
      <path class="cls-2" d="M292,342.81h96c.26-9.55,9.06-17.22,19.89-17.22h23.82a22.37,22.37,0,0,0-4.41-.44H272.14C272.14,334.9,281.05,342.81,292,342.81Z"></path>
      <path class="cls-1" d="M689.19,331.79l1.78-4-8-.34A19.84,19.84,0,0,1,689.19,331.79Z"></path>
      <path class="cls-1" d="M674.05,325.59H638.73l44.22,1.87A21.86,21.86,0,0,0,674.05,325.59Z"></path>
      <path class="cls-1" d="M647,238.17H601.73a39.26,39.26,0,0,1-5.8-.41,68.6,68.6,0,0,0-10.12-.75H191.56c-17.08,0-32.5,6.26-43.53,16.33H105c-33.53,0-60.72,24.12-60.72,53.88h0a48.37,48.37,0,0,0,3.45,17.92H19.9c-11,0-19.9,7.91-19.9,17.66s8.91,17.66,19.9,17.66H247.65a11.08,11.08,0,0,0,3.1.44H455.23c5.49,0,9.95-4,9.95-8.83v-.45c0-4.88-4.45-8.83-9.95-8.83H292q-.69,0-1.36,0c-11.23-.67-10.46-17.62.79-17.62h135.9a22.37,22.37,0,0,1,4.41.44H638.73l-16.83-.44C606,325.15,593,313.68,593,299.54c0-10.44,7-19.41,17.14-23.4a31.87,31.87,0,0,1,11.72-2.21h29.29a16.75,16.75,0,0,0,17.23-16.78C668.42,246.67,658.84,238.17,647,238.17Z"></path>
      <rect class="cls-2" x="271.96" y="325.59" width="192.8" height="17.52" rx="8.57" ry="8.57"></rect>
      <rect class="cls-2" x="484.08" y="325.59" width="230.76" height="35.76" rx="17.88" ry="17.88"></rect>
      <rect class="cls-2" x="78.53" y="283.85" width="405.39" height="42.14" rx="21.07" ry="21.07"></rect>
      <path class="cls-3" d="M383.89,353.33"></path>
      <path class="cls-4" d="M289.26,313h90.28c2.27,0,4.1,1.38,4.1,3.08v4.65c0,1.7-1.84,3.08-4.1,3.08H289.26"></path>
      <path class="cls-5" d="M289.26,313h45.47c1.14,0,2.07,1.38,2.07,3.08v4.65c0,1.7-.93,3.08-2.07,3.08H289.26"></path>
      <path class="cls-6" d="M286.86,323.8H334A2.82,2.82,0,0,0,336.8,321v-5.16A2.82,2.82,0,0,0,334,313H286.86"></path>
      <line class="cls-7" x1="351.22" y1="318.39" x2="371.04" y2="318.39"></line>
      <line class="cls-8" x1="311.58" y1="303.98" x2="331.4" y2="303.98"></line>
      <path class="cls-9" d="M394.46,298.58H304.18c-2.27,0-4.1,1.38-4.1,3.08v4.65c0,1.7,1.84,3.08,4.1,3.08h90.28"></path>
      <path class="cls-10" d="M394.46,298.58H349c-1.14,0-2.07,1.38-2.07,3.08v4.65c0,1.7.93,3.08,2.07,3.08h45.47"></path>
      <path class="cls-11" d="M396.86,309.39H349.74a2.82,2.82,0,0,1-2.82-2.82V301.4a2.82,2.82,0,0,1,2.82-2.82h47.12"></path>
      <line class="cls-12" x1="331.3" y1="303.98" x2="311.48" y2="303.98"></line>
      <path class="cls-13" d="M242.08,290.58l-86.38-3.06h0a17,17,0,0,1,17.6-16.39l69.89-11.7Z"></path>
      <rect class="cls-5" x="205.2" y="233.78" width="10.43" height="38.26" rx="5.22" ry="5.22" transform="translate(110.77 -60.64) rotate(22.13)"></rect>
      <rect class="cls-5" x="220.37" y="257.41" width="11.34" height="11.34" rx="5.67" ry="5.67" transform="translate(9.46 -7.84) rotate(2.03)"></rect>
      <rect class="cls-5" x="237.71" y="245.95" width="9.95" height="26.57" rx="4.98" ry="4.98" transform="translate(578.61 374.37) rotate(152.03)"></rect>
      <rect class="cls-5" x="192.36" y="247.88" width="8.5" height="90.68" rx="4.25" ry="4.25" transform="translate(-103.39 479.33) rotate(-87.97)"></rect>
      <path class="cls-5" d="M243.24,273.27h0a0,0,0,0,1,0,0v21.28a4.23,4.23,0,0,1-4.23,4.23H223.81a0,0,0,0,1,0,0v-6.07A19.43,19.43,0,0,1,243.24,273.27Z" transform="translate(10.28 -8.09) rotate(2.03)"></path>
      <rect class="cls-14" x="236.35" y="249.37" width="5.67" height="5.67" rx="2.83" ry="2.83" transform="translate(9.08 -8.31) rotate(2.03)"></rect>
      <rect class="cls-5" x="173.24" y="267.64" width="2.83" height="9.92" rx="1.06" ry="1.06" transform="translate(9.77 -6.02) rotate(2.03)"></rect>
      <rect class="cls-5" x="179.43" y="266.44" width="2.83" height="9.92" rx="1.06" ry="1.06" transform="matrix(1, 0.04, -0.04, 1, 9.73, -6.24)"></rect>
      <rect class="cls-5" x="185.61" y="265.24" width="2.83" height="9.92" rx="1.06" ry="1.06" transform="translate(9.69 -6.46) rotate(2.03)"></rect>
      <rect class="cls-5" x="191.8" y="264.04" width="2.83" height="9.92" rx="1.06" ry="1.06" transform="translate(9.65 -6.68) rotate(2.03)"></rect>
      <path class="cls-15" d="M227.47,275a22.13,22.13,0,0,1-17-36.32l60-71.79a22.13,22.13,0,0,1,26.79-5.65L387.71,206a22.13,22.13,0,1,1-19.62,39.67l-74.82-37-48.82,58.42A22.08,22.08,0,0,1,227.47,275Z"></path>
      <path class="cls-16" d="M336.57,206.18a17.21,17.21,0,0,1-3.68-34l39.58-8.71L389,112.95a17.21,17.21,0,1,1,32.71,10.72l-19.61,59.84A17.21,17.21,0,0,1,389.46,195l-49.17,10.82A17.25,17.25,0,0,1,336.57,206.18Z"></path>
      <path class="cls-17" d="M386.24,280.55a43.3,43.3,0,0,1-35.29-18,42.49,42.49,0,0,1,10.27-59.62c22.23-15.59,26.65-23.22,27.34-75.75a43,43,0,0,1,43.19-42.21h.58A43,43,0,0,1,475,128.26c-.43,32.31-2.36,56.86-10.66,79.38-9.42,25.55-26.3,46.22-53.13,65A43.32,43.32,0,0,1,386.24,280.55Z"></path>
      <rect class="cls-18" x="408.01" y="54.17" width="25" height="51.69" rx="12.5" ry="12.5" transform="translate(7.16 191.25) rotate(-25.83)"></rect>
      <path class="cls-19" d="M365.56,78.33,355.26,61.26C343.9,42.45,349.17,18.45,367,7.67h0"></path>
      <rect class="cls-20" x="353.85" y="50.79" width="30.49" height="30.49" rx="15.24" ry="15.24"></rect>
      <rect class="cls-21" x="406.9" y="95.09" width="41.83" height="10.36" rx="5.18" ry="5.18" transform="translate(7.18 227.34) rotate(-30)"></rect>
      <path class="cls-21" d="M475.31,208.14A17.18,17.18,0,0,1,473,208l-58.21-7.71a17.21,17.21,0,0,1,4.52-34.12l33.07,4.38L438.5,115.22a17.21,17.21,0,1,1,33.38-8.4L492,186.73a17.21,17.21,0,0,1-16.69,21.41Z"></path>
      <path class="cls-22" d="M415.75,186.11h0a22.78,22.78,0,0,1-31.07-8.49l-2.8-4.9a6.36,6.36,0,0,1,2.37-8.68l14.26-8.14a6.36,6.36,0,0,1,8.68,2.37l10.93,19.16A6.36,6.36,0,0,1,415.75,186.11Z"></path>
      <rect class="cls-22" x="369.33" y="155.42" width="34.14" height="7.65" rx="3.82" ry="3.82" transform="translate(-4.99 12.7) rotate(-1.87)"></rect>
      <rect class="cls-14" x="147.78" y="261.35" width="6.15" height="6.15" rx="3.08" ry="3.08" transform="translate(277.05 -12.62) rotate(54.19)"></rect>
      <rect class="cls-23" x="350.14" y="38.83" width="22.7" height="24.87" rx="9.34" ry="9.34" transform="translate(8.83 145.79) rotate(-23.08)"></rect>
      <rect class="cls-22" x="354.73" y="3.22" width="77.45" height="97.71" rx="38.72" ry="38.72" transform="translate(11.03 158.25) rotate(-23.06)"></rect>
      <path class="cls-23" d="M426,25.18,422.9,18A29.11,29.11,0,0,0,384.71,2.62L325,28.05a.06.06,0,0,0,0,.08l1.41,3.3a32,32,0,0,0,42,16.91L403.1,33.57a1.62,1.62,0,0,1,2.13.86h0A11.35,11.35,0,0,0,421,40,11.6,11.6,0,0,0,426,25.18Z"></path>
      <line class="cls-24" x1="382.12" y1="36.76" x2="387.84" y2="34.44"></line>
      <rect class="cls-23" x="325.05" y="14.6" width="14.34" height="24.64" rx="7.17" ry="7.17" transform="translate(21.47 147.46) rotate(-25.83)"></rect>
      <path class="cls-24" d="M331.72,34.21a32,32,0,0,0,36.69,8.39l7.3-3.05"></path>
      <path class="cls-23" d="M347.31,27.24h0a7,7,0,0,1-9.16-3.69h0a7,7,0,0,1,3.69-9.16h0"></path>
      <rect class="cls-25" x="415.31" y="30.85" width="25.27" height="25.27" rx="12.63" ry="12.63" transform="translate(17.15 171.07) rotate(-23.06)"></rect>
      <circle class="cls-26" cx="404.02" cy="69.67" r="24.09"></circle>
      <path class="cls-23" d="M403.27,41.79h0a7,7,0,0,1-3.07-9.38h0a7,7,0,0,1,9.38-3.07h0"></path>
      <path class="cls-27" d="M393.71,228.36s-15.57.51-17.68-.17l-97.57-30.52a22.13,22.13,0,0,0-13.61.06l-117,38.35a22.13,22.13,0,1,0,13.78,42.05L271.83,242l51.83,15.3a103.13,103.13,0,0,1,37.93,21.14,27.74,27.74,0,0,0,18.16,6.74h14a27.87,27.87,0,0,0,27.87-27.87v-1.1A27.87,27.87,0,0,0,393.71,228.36Z"></path>
      <rect class="cls-5" x="125.43" y="220.73" width="11.33" height="41.55" rx="5.66" ry="5.66" transform="translate(328.09 49.93) rotate(74.29)"></rect>
      <path class="cls-14" d="M146.9,273.56a18.47,18.47,0,0,0,.85-22.69h0A18.46,18.46,0,0,0,122,246.7h0a18.6,18.6,0,0,0-2.2,1.86l-29-26.76A18.46,18.46,0,0,0,65,217.63h0l54.91,76.12,23.71-17.1h0l3.74-2.7Z"></path>
      <path class="cls-5" d="M128.63,269.54h0a0,0,0,0,1,0,0v23.11a4.59,4.59,0,0,1-4.59,4.59H107.53a0,0,0,0,1,0,0v-6.59A21.1,21.1,0,0,1,128.63,269.54Z" transform="translate(278.82 21.83) rotate(54.19)"></path>
      <rect class="cls-5" x="126.62" y="255.52" width="12.31" height="12.31" rx="6.15" ry="6.15" transform="translate(267.31 0.9) rotate(54.19)"></rect>
      <rect class="cls-5" x="141.75" y="258.97" width="10.81" height="28.85" rx="5.4" ry="5.4" transform="translate(169.35 583.08) rotate(-155.81)"></rect>
      <rect class="cls-5" x="104.29" y="232.09" width="3.08" height="10.77" rx="1.15" ry="1.15" transform="translate(236.51 12.71) rotate(54.19)"></rect>
      <rect class="cls-5" x="82.7" y="207.28" width="9.23" height="98.48" rx="4.62" ry="4.62" transform="translate(-133.57 99.57) rotate(-35.81)"></rect>
      <rect class="cls-5" x="88.84" y="218.56" width="3.08" height="10.77" rx="1.15" ry="1.15" transform="translate(219.13 19.63) rotate(54.19)"></rect>
      <rect class="cls-5" x="93.99" y="223.07" width="3.08" height="10.77" rx="1.15" ry="1.15" transform="translate(224.92 17.32) rotate(54.19)"></rect>
      <rect class="cls-5" x="99.14" y="227.58" width="3.08" height="10.77" rx="1.15" ry="1.15" transform="translate(230.71 15.02) rotate(54.19)"></rect>
      <path class="cls-28" d="M394.56,194.77l-75-7-32-45.16a1.08,1.08,0,0,1,1-1.69l72.76,6.84a4.71,4.71,0,0,1,3.4,2l30.74,43.44A1.05,1.05,0,0,1,394.56,194.77Z"></path>
      <path class="cls-29" d="M389.41,192.25l-67.78-6.37-29.26-41.34a.42.42,0,0,1,.53-.63l96.74,47.54A.42.42,0,0,1,389.41,192.25Z"></path>
      <circle class="cls-30" cx="339.68" cy="168.35" r="4.15"></circle>
      <rect class="cls-20" x="413.51" y="32.03" width="30.49" height="30.49" rx="15.24" ry="15.24" transform="translate(37.29 228.44) rotate(-31.13)"></rect>
      <rect class="cls-31" x="420.49" y="39.01" width="16.54" height="16.54" rx="8.27" ry="8.27" transform="translate(37.29 228.44) rotate(-31.13)"></rect>
      <path class="cls-19" d="M367,7.67c17.86-10.79,41.55-4.28,52.91,14.53l7.16,12.56"></path>
      <path class="cls-18" d="M339.4,174.6l-11.47,11.46a4,4,0,0,1-5.59,0h0a4,4,0,0,1,0-5.59l11.53-11.54a3.85,3.85,0,0,1,5.45,0l.08.08A4,4,0,0,1,339.4,174.6Z"></path>
      <path class="cls-18" d="M351.39,197.68l-13.63,3.85c-8.42,2.38-17-3.12-17-10.85v-7.88a3.41,3.41,0,0,1,3.62-3.17h42.53c2.73,0,4.05,2.91,2.08,4.55l-14.08,11.7A9.43,9.43,0,0,1,351.39,197.68Z"></path>
      <rect class="cls-5" x="111.98" y="237.21" width="11.33" height="13.6" rx="5.66" ry="5.66" transform="translate(320.7 64.7) rotate(74.29)"></rect>
      <path class="cls-1" d="M168.86,310.87c0,2.82-3.29,5.11-7.34,5.11s-7.34-2.29-7.34-5.11"></path>
      <path class="cls-2" d="M91,344.07c0,2.82-3.29,5.11-7.34,5.11s-7.34-2.29-7.34-5.11"></path>
      <path class="cls-1" d="M231.43,308.32c0,2.82-3.29,5.11-7.34,5.11s-7.34-2.29-7.34-5.11"></path>
      <path class="cls-1" d="M491.26,344.71c0,2.82-3.29,5.11-7.34,5.11s-7.34-2.29-7.34-5.11"></path>
      <path class="cls-2" d="M281.86,266.18c0,2.82-3.29,5.11-7.34,5.11s-7.34-2.29-7.34-5.11"></path>
      <path class="cls-32" d="M419.12,266.82c.08.16,9.58-47.24-49.16-47.24C370,219.58,398.05,227.24,419.12,266.82Z"></path>
      <path class="cls-33" d="M429,308.15h-9.74a8.65,8.65,0,0,1-8.65-8.65h0a8.65,8.65,0,0,1,8.65-8.65h4.13"></path>
      <path class="cls-34" d="M566.76,271.62H422.19v6.15a35.12,35.12,0,0,0,1.67,10.72,26,26,0,0,0-1.67,9.18v2a26,26,0,0,0,26,26H557.91a8.85,8.85,0,0,0,8.85-8.85V278.23c0-.05,0-.1,0-.16s0-.21,0-.31Z"></path>
      <path class="cls-35" d="M526.32,311.5H449.21a25.42,25.42,0,0,1-25.42-25.42v-6.88"></path>
      <rect class="cls-20" x="524.88" y="307.43" width="4.6" height="15.07" rx="2.3" ry="2.3" transform="translate(-59.32 497.01) rotate(-48.1)"></rect>
      <rect class="cls-36" x="422.19" y="249" width="144.57" height="50.16" rx="25.08" ry="25.08"></rect>
      <rect class="cls-20" x="513.24" y="310.35" width="4.6" height="2.74" rx="0.86" ry="0.86" transform="translate(203.82 827.26) rotate(-90)"></rect>
      <rect class="cls-37" x="500.95" y="266.88" width="41.8" height="27.11" rx="9.91" ry="9.91"></rect>
      <rect class="cls-38" x="500.95" y="254.65" width="41.8" height="32.95" rx="10.93" ry="10.93"></rect>
      <path class="cls-37" d="M498.16,260.06H522a6,6,0,0,1,6,6v0a13.64,13.64,0,0,1-13.64,13.64h-7.66a14.1,14.1,0,0,1-14.1-14.1v0a5.57,5.57,0,0,1,5.57-5.57Z" transform="translate(240.4 780.19) rotate(-90)"></path>
      <rect class="cls-38" x="512.26" y="267.44" width="4.92" height="4.92" rx="2.46" ry="2.46" transform="translate(244.82 784.61) rotate(-90)"></rect>
      <path class="cls-1" d="M678.89,332.62c0,3-3.53,5.49-7.89,5.49s-7.89-2.46-7.89-5.49"></path>
      <path class="cls-1" d="M583.25,237.6h67a18.07,18.07,0,0,1,18.07,18.07v0a18.07,18.07,0,0,1-18.07,18.07h-67a0,0,0,0,1,0,0V237.6a0,0,0,0,1,0,0Z"></path>
      <path class="cls-2" d="M599.07,260.24c0,3-3.53,5.49-7.89,5.49s-7.89-2.46-7.89-5.49"></path>
      <rect class="cls-23" x="368.4" y="64.52" width="3.55" height="8.87" rx="1.77" ry="1.77" transform="translate(6.95 168.21) rotate(-25.83)"></rect>
      <rect class="cls-23" x="385.22" y="57.38" width="3.55" height="8.87" rx="1.77" ry="1.77" transform="translate(11.74 174.82) rotate(-25.83)"></rect>
      <path class="cls-23" d="M384.6,52a1,1,0,0,1,1.43-.27c1.41.94,2.72-1.33,1.32-2.27a3.61,3.61,0,0,0-5,1.21A1.31,1.31,0,0,0,384.6,52Z"></path>
      <path class="cls-23" d="M363.18,61c0-.4,0,.09,0-.13s0-.09,0,0l.06-.12a.8.8,0,0,1,.31-.37c-.1.08,0,0,.07,0s.29-.14.21-.11.2,0,.24-.05c-.23,0,.23,0,0,0a1.36,1.36,0,0,0,1.61-.92,1.32,1.32,0,0,0-.92-1.61,3.64,3.64,0,0,0-3,.79A3.55,3.55,0,0,0,360.55,61a1.31,1.31,0,1,0,2.62,0Z"></path>
      <path class="cls-39" d="M375.71,68.84A97.81,97.81,0,0,1,378,81.63l7-1"></path>
      <path class="cls-40" d="M395.89,77.69c.76,1.82-1.19,7.22-5.39,7.91h0"></path>
    </g>
  </g>
</svg>
