<?xml version="1.0" encoding="UTF-8" standalone="no"?>
<svg xmlns="http://www.w3.org/2000/svg" viewBox="0 0 215 215"><defs><style>.a{fill:#f0f6fe;}.b{fill:#3479f7;}.c{fill:#b6b6b7;}.d{fill:#ccc;}.e{fill:#c6d6f6;}.f{fill:#d79c84;}.g{fill:#262c76;}.h{fill:#1e2656;}.i{fill:#b1c3e0;}.j{fill:#10327a;}.k{fill:#469af8;}.l{fill:#fff;}.m{fill:none;stroke:#3479f7;stroke-linecap:round;stroke-linejoin:round;stroke-miterlimit:10;}.n{fill:#d7e7fd;}</style></defs><g transform="translate(-57.25 -36.426)"><path class="a" d="M261.25,130.932A107.5,107.5,0,1,1,68.817,65.049c2.355,2.011,11.061,9.623,13.251,13.645l4.366-3.882s2.049-2.24,2.444-.165l2.253,5.028s19.386-9.826,28.054-9.508c0,0-9.114-20.048-18.8-29.276,0,0-2.393.025-5.677.2A107.5,107.5,0,0,1,261.25,130.932Z" transform="translate(11 13)"/><g transform="translate(4.142 -3.66)"><g transform="translate(73.353 40.736)"><g transform="translate(102.205 142.654)"><path class="b" d="M272.772,234.257H210.479v-8.69a.789.789,0,0,1,.789-.789h60.714a.789.789,0,0,1,.789.789Z" transform="translate(-210.479 -224.778)"/><rect class="c" width="7.954" height="18.43" transform="translate(27.169 10.086)"/><path class="d" d="M268.979,240.356h-53.2a1.609,1.609,0,0,1-1.609-1.609V236.69h56.419v2.057A1.609,1.609,0,0,1,268.979,240.356Z" transform="translate(-211.233 -227.21)"/><path class="e" d="M265.974,287.783a5.123,5.123,0,0,0-2.736.8.464.464,0,0,0-.334.212,1.662,1.662,0,0,1-.139.135c-.117.093-.237.182-.345.285a2.976,2.976,0,0,1-2.064.25c-5.919-5.483-11.918-5.86-11.918-5.86l-.7-.912V259.071h-10.4v24.535s-6,.377-11.918,5.86a1.188,1.188,0,0,1-1.655-.156l-.022-.023a1.746,1.746,0,0,1-.13-.133.568.568,0,0,0-.267-.194,5.145,5.145,0,1,0,1.917,4.014,3.606,3.606,0,0,1,1.465-.206c2.545.186,12.819-.99,16.159-4.265,3.34,3.275,13.614,4.451,16.159,4.265a3.656,3.656,0,0,1,1.777.317,5.158,5.158,0,1,0,5.15-5.3Z" transform="translate(-211.39 -231.781)"/></g><path class="b" d="M222.33,130.058l-1.911-27.13s-.363-4.721,5.629-5.447,34.5-2.818,47.207.86c0,0,6.355,1.333,5.992,10.495s-4.176,58.6-4.176,58.6l-20.181,2.473L227,154.755Z" transform="translate(-110.303 -54.31)"/><g transform="translate(55.076 113.07)"><g transform="translate(2.5 76.424)"><path class="f" d="M176.911,287.978l-1.3,9.256,3.1,4.1,5.078-1.474.737-3.194v-9.993l-1.72-3.031Z" transform="translate(-158.73 -283.636)"/><path class="g" d="M179.814,297.83a2.1,2.1,0,0,1-2.081,2.3,16.138,16.138,0,0,1-4.981-.52s.818-4.312-1.264-4.163-.223.966-2.379,2.973c0,0-8.474,5.129-12.042,5.947s-2.527,3.717-2.527,3.717l.7,1.892s8.147.784,13.128-.926,9.378-2.973,11.454-2.676,1.184-6.17,1.184-6.17S181.3,296.418,179.814,297.83Z" transform="translate(-154.398 -286.048)"/></g><g transform="translate(32.279 60.293)"><path class="f" d="M198.052,270.384l4.533,8.174,4.944,1.4,3.167-4.235-1.335-2.994-6.017-7.979-3.2-1.384Z" transform="translate(-193.091 -263.367)"/><path class="g" d="M207.034,274a2.1,2.1,0,0,1-.274,3.093,16.139,16.139,0,0,1-4.29,2.583s-1.943-3.935-3.515-2.563.4.906-.109,3.806c0,0-3.678,9.2-6.034,12s.22,4.489.22,4.489l1.7,1.09s6.977-4.279,9.924-8.643,5.7-8.021,7.534-9.033-2.77-5.639-2.77-5.639S207.371,271.982,207.034,274Z" transform="translate(-191.818 -265.403)"/></g><path class="g" d="M181.421,211.269l14.651,40.507a23.711,23.711,0,0,1-7.108,4.805s-4.1-3.88-9.628-9.646v-.018c-1.577-1.632-3.246-3.427-4.986-5.331-1.469-1.614-2.974-3.3-4.479-5.041s-3.028-3.554-4.5-5.385c-6.255-7.706-11.786-15.811-13.726-22.212-5.276-17.407,44.424-20.145,44.424-20.145l37.606.907Z" transform="translate(-151.256 -187.847)"/><path class="g" d="M260.132,190.762s6.286,28.287-24.1,28.287c-13.591,0-21.29,2.524-28.7,3.451-8.022,1-14.727,6.414-15.595,14.451L184.7,270.593H174.643V209.2s.838-9.219,7.962-11.315S231.216,187.6,231.216,187.6Z" transform="translate(-156.032 -187.602)"/><path class="h" d="M217.238,190.595l-35.784,7.894a9.6,9.6,0,0,0-6.165,5.313,18.114,18.114,0,0,0-1.8,8.159v24.95c-1.5-1.741-3.028-3.554-4.5-5.385l.961-21.976c-.254-11.786,10.625-12.983,10.625-12.983Z" transform="translate(-154.879 -188.213)"/></g><path class="i" d="M276.9,155.678l-2.17,23.452-33.24,2.916V171.739l15.452-12.282Z" transform="translate(-114.606 -66.84)"/><path class="f" d="M233.958,90.978s-.31,7.435-2.288,9.084l6.863,5.3L252.786,96.5a48.55,48.55,0,0,1-3.233-17.3l-10.539,1.153Z" transform="translate(-112.035 -50.163)"/><g transform="translate(106.252 0)"><path class="j" d="M219.474,68.438s-3.958-4.237-4.436-9-.379-4.237,1.4-6.531,3.373-2.409,5.272-4.855,5.578-6.38,12.763-5.091,12.28,8.949,13.242,13.364,1.768,11.27,1.768,11.27l-13.706,3.359Z" transform="translate(-214.793 -42.713)"/><path class="j" d="M222.947,80.368s1.622,6.823,3.747,9.6,8.05,5.633,9.359,5.36,7.491-1.378,9.483-7.64,1.312-7.942,2.21-9.15-.737-2.574-.737-2.574l-24.188.956Z" transform="translate(-216.433 -49.503)"/><path class="f" d="M219.76,69.5s4.056,20.713,16.873,16.822c0,0,5.4-1.519,6.93-6.324s3.383-4.97,3.383-4.97a3.309,3.309,0,0,0,3.378-4.147c-.658-4.194-2.714-3.6-2.714-3.6a12.208,12.208,0,0,1-4.656-5.715c-1.555-3.919-7.1-3.317-11.792-.7s-5.861.3-8.82.267S217.812,65.638,219.76,69.5Z" transform="translate(-215.631 -45.989)"/></g><path class="e" d="M267.78,115.667c-2.031-10.68-24.432-14.9-24.432-14.9l-14.64,9-6.838-5.175-5.62,1.125c-.109-.163-10.444,3.481-13.255,10.734-2.811,7.235-10.916,29.7-10.916,29.7l-8.522,4.1,1.4,13.617,56.7,4.5c2.339-1.777,2.1-4.8,1.316-8.812,8.111-1.9,7.65-1.039,15.329-4.37C266.633,151.561,269.811,126.365,267.78,115.667Zm-57.934,42.691-1.608,4.736-3.648-3.041,4.569-30.226Z" transform="translate(-102.776 -55.262)"/><path class="i" d="M213.179,137.286l-4.569,30.226-5.367-3.79,2.919-3.391Z" transform="translate(-105.85 -62.93)"/><path class="f" d="M243.177,164.864s-18.881,4.035-26.931,4.964-10.836.505-14.4,4.025v2.332l13.568,1.848,11.83-1.805L244.575,172l-.019-3.77Z" transform="translate(-105.828 -68.727)"/><path class="i" d="M251.57,157.848s8.083-1.372,11.44-4.995,1.376-14.114,1.376-14.114S260.423,152.219,251.57,157.848Z" transform="translate(-116.227 -63.189)"/><path class="k" d="M253.767,160.513s3.948,9.58,3.564,12.366c0,0-2.321,2-4.275,2.11,0,0-2.863-10.385-3.438-13.309C249.618,161.679,252.131,160.316,253.767,160.513Z" transform="translate(-115.754 -67.803)"/><g transform="translate(11.341 52.205)"><path class="j" d="M188.27,178.222h20.142s.972,3.505-2.65,3.505h-94a2.184,2.184,0,0,1-2.12-2.65l52.122-4.446Z" transform="translate(-96.856 -122.61)"/><path class="l" d="M96.609,109.274H172.37s3.334-.334,4.024,2.448l8.967,52.182s0,2.114-1.839,2.114H106.338s-3.406.223-4.326-2.782L93.735,113.28S92.585,109.274,96.609,109.274Z" transform="translate(-93.583 -109.262)"/><ellipse class="e" cx="3.325" cy="4.03" rx="3.325" ry="4.03" transform="matrix(0.984, -0.177, 0.177, 0.984, 39.102, 25.867)"/></g><g transform="translate(113.544 44.198)"><path class="k" d="M256.283,98.884l4.063,2.914-12.108,14.466-7.945-6.885Z" transform="translate(-227.379 -98.884)"/><path class="k" d="M227.758,102.6l-3.693,2.636,6.052,11.191,7.2-6.146Z" transform="translate(-224.065 -99.644)"/></g><rect class="d" width="183.192" height="6.529" transform="translate(0 110.883)"/></g><g transform="translate(53.108 67.801)"><path class="e" d="M89.025,140.313h-.014A35.8,35.8,0,0,1,84.936,140a.663.663,0,0,1-.567-.745.654.654,0,0,1,.746-.567,34.642,34.642,0,0,0,3.924.305.663.663,0,0,1-.014,1.325Zm-7.937-1.077a.65.65,0,0,1-.164-.021,35.877,35.877,0,0,1-3.9-1.231.663.663,0,0,1,.471-1.24,34.45,34.45,0,0,0,3.755,1.187.662.662,0,0,1-.162,1.3ZM73.6,136.39a.661.661,0,0,1-.3-.074,36.421,36.421,0,0,1-3.517-2.083.663.663,0,0,1,.739-1.1,34.766,34.766,0,0,0,3.388,2.006.663.663,0,0,1-.305,1.251Zm-6.65-4.47a.658.658,0,0,1-.429-.158,36.037,36.037,0,0,1-2.958-2.82.663.663,0,1,1,.968-.906,34.54,34.54,0,0,0,2.848,2.716.662.662,0,0,1-.429,1.167Zm-5.475-5.847a.66.66,0,0,1-.533-.268,36.18,36.18,0,0,1-2.247-3.41.662.662,0,1,1,1.145-.665A35.238,35.238,0,0,0,62,125.016a.662.662,0,0,1-.531,1.057Zm-4.018-6.926a.664.664,0,0,1-.608-.4,35.961,35.961,0,0,1-1.418-3.833.663.663,0,1,1,1.267-.388,34.523,34.523,0,0,0,1.367,3.691.663.663,0,0,1-.607.928Zm-2.347-7.66a.662.662,0,0,1-.651-.542,35.967,35.967,0,0,1-.512-4.054.664.664,0,0,1,.616-.707.654.654,0,0,1,.707.616,34.534,34.534,0,0,0,.492,3.9.662.662,0,0,1-.531.771A.645.645,0,0,1,55.107,111.487Zm-.553-7.991h-.029a.664.664,0,0,1-.633-.691,36.051,36.051,0,0,1,.407-4.066.662.662,0,1,1,1.308.207,34.918,34.918,0,0,0-.391,3.916A.663.663,0,0,1,54.554,103.5ZM55.8,95.584a.652.652,0,0,1-.178-.025.662.662,0,0,1-.461-.815,35.911,35.911,0,0,1,1.318-3.871.663.663,0,0,1,1.228.5A34.456,34.456,0,0,0,56.441,95.1.662.662,0,0,1,55.8,95.584Zm3.011-7.427a.654.654,0,0,1-.317-.082.662.662,0,0,1-.264-.9,36.488,36.488,0,0,1,2.159-3.472.663.663,0,0,1,1.084.764,34.9,34.9,0,0,0-2.08,3.343A.661.661,0,0,1,58.814,88.158Zm4.613-6.551a.662.662,0,0,1-.495-1.1,36.133,36.133,0,0,1,2.885-2.895.662.662,0,1,1,.884.986,34.979,34.979,0,0,0-2.778,2.789A.659.659,0,0,1,63.427,81.607Z" transform="translate(-53.891 -77.439)"/></g><path class="m" d="M57.314,60.533S71.656,67.826,85.8,85.093c0,0,16.092-15.071,25.153-17.838,0,0-17.321-19.128-27.469-23.6C83.483,43.655,67.918,47.033,57.314,60.533Z" transform="translate(-1.482 -2.169)"/><path class="m" d="M100.567,80.036c1.028,2.078,2.038,4.279,3.009,6.6,0,0,19.729-9.841,29.2-9.9,0,0-11.129-23.282-19.574-30.468a49.12,49.12,0,0,0-15.028,1.785" transform="translate(-10.299 -2.693)"/><path class="e" d="M87.275,81.681A99.33,99.33,0,0,0,63.3,60.863a46.174,46.174,0,0,1,21.441-13.3c7.228,3.513,18.319,14.8,22.666,19.39C100.241,70.33,90.854,78.459,87.275,81.681Z" transform="translate(-2.705 -2.968)"/><g transform="translate(69.082 50.598)"><path class="m" d="M73.964,62.428s6.256-5.625,11.2-7.322" transform="translate(-73.964 -55.105)"/><path class="m" d="M77.432,65.9s7.482-7.058,15.532-9.289" transform="translate(-74.672 -55.412)"/><path class="m" d="M81.472,69.23S88.955,62.172,97,59.942" transform="translate(-75.498 -56.093)"/></g><g transform="translate(154.662 77.746)"><g transform="translate(0 0.899)"><path class="b" d="M185.181,97.94a.663.663,0,0,1-.637-.484l-1.568-5.6a.663.663,0,1,1,1.276-.357l1.568,5.6a.663.663,0,0,1-.639.841Z" transform="translate(-182.951 -91.017)"/></g><g transform="translate(14.528 2.374)"><path class="b" d="M201.868,99.059A.663.663,0,0,1,201.334,98L204.9,93.14a.663.663,0,0,1,1.069.784L202.4,98.788A.665.665,0,0,1,201.868,99.059Z" transform="translate(-201.206 -92.87)"/></g><g transform="translate(8.093)"><path class="b" d="M193.784,97.71a.524.524,0,0,1-.089-.006.662.662,0,0,1-.568-.745l.879-6.5a.652.652,0,0,1,.745-.567.662.662,0,0,1,.568.745l-.879,6.5A.663.663,0,0,1,193.784,97.71Z" transform="translate(-193.121 -89.887)"/></g></g><path class="n" d="M88.125,221.753a3,3,0,0,0,.454.931,3.526,3.526,0,0,0,1.052.786q1.185.68,2.321,1.44c.971.648,2.122,1.373,3.222.982a2.676,2.676,0,0,0,1.366-3.045,20.5,20.5,0,0,0-1.3-3.384,8.364,8.364,0,0,1-.51-3.115c.076-2.7-2.959-3-4.889-1.736C87.478,216.163,87.31,219.338,88.125,221.753Z" transform="translate(-7.684 -38.477)"/></g></g></svg>